<svg xmlns="http://www.w3.org/2000/svg" viewBox="0 0 900 900" role="img" aria-label="Imagem do produto">
  <defs>
    <linearGradient id="g" x1="0" y1="0" x2="1" y2="1">
      <stop offset="0" stop-color="#f8f4fa"/>
      <stop offset="1" stop-color="#fff4c8"/>
    </linearGradient>
  </defs>
  <rect width="900" height="900" rx="48" fill="url(#g)"/>
  <g transform="translate(250 210)">
    <path d="M25 210h350v260H25z" fill="#5f3b73" rx="20"/>
    <path d="M190 210h25v260h-25zM25 275h350v25H25z" fill="#fff" opacity=".95"/>
    <path d="M202 202C145 166 99 116 111 74c11-40 60-48 91-11 19 23 24 75 12 139z" fill="none" stroke="#ffc82e" stroke-width="35" stroke-linecap="round"/>
    <path d="M213 202c57-36 103-86 91-128-11-40-60-48-91-11-19 23-24 75-12 139z" fill="none" stroke="#ffc82e" stroke-width="35" stroke-linecap="round"/>
  </g>
  <text x="450" y="760" text-anchor="middle" font-family="Arial, sans-serif" font-size="42" font-weight="700" fill="#5f3b73">PRESENTEAR FOZ</text>
  <text x="450" y="815" text-anchor="middle" font-family="Arial, sans-serif" font-size="26" fill="#6f6574">Imagem disponível em breve</text>
</svg>
